<svg xmlns="http://www.w3.org/2000/svg" viewBox="0 0 100 100" preserveAspectRatio="xMidYMid" width="135" height="135" style="shape-rendering: auto; display: block; background: transparent;" xmlns:xlink="http://www.w3.org/1999/xlink"><g><g transform="rotate(0 50 50)">
  <rect fill="#550a9c" height="12" width="6" ry="6" rx="3" y="24" x="47">
    <animate repeatCount="indefinite" begin="-0.4385964912280702s" dur="0.47846889952153115s" keyTimes="0;1" values="1;0" attributeName="opacity"></animate>
  </rect>
</g><g transform="rotate(30 50 50)">
  <rect fill="#550a9c" height="12" width="6" ry="6" rx="3" y="24" x="47">
    <animate repeatCount="indefinite" begin="-0.39872408293460926s" dur="0.47846889952153115s" keyTimes="0;1" values="1;0" attributeName="opacity"></animate>
  </rect>
</g><g transform="rotate(60 50 50)">
  <rect fill="#550a9c" height="12" width="6" ry="6" rx="3" y="24" x="47">
    <animate repeatCount="indefinite" begin="-0.35885167464114837s" dur="0.47846889952153115s" keyTimes="0;1" values="1;0" attributeName="opacity"></animate>
  </rect>
</g><g transform="rotate(90 50 50)">
  <rect fill="#550a9c" height="12" width="6" ry="6" rx="3" y="24" x="47">
    <animate repeatCount="indefinite" begin="-0.3189792663476874s" dur="0.47846889952153115s" keyTimes="0;1" values="1;0" attributeName="opacity"></animate>
  </rect>
</g><g transform="rotate(120 50 50)">
  <rect fill="#550a9c" height="12" width="6" ry="6" rx="3" y="24" x="47">
    <animate repeatCount="indefinite" begin="-0.27910685805422647s" dur="0.47846889952153115s" keyTimes="0;1" values="1;0" attributeName="opacity"></animate>
  </rect>
</g><g transform="rotate(150 50 50)">
  <rect fill="#550a9c" height="12" width="6" ry="6" rx="3" y="24" x="47">
    <animate repeatCount="indefinite" begin="-0.23923444976076558s" dur="0.47846889952153115s" keyTimes="0;1" values="1;0" attributeName="opacity"></animate>
  </rect>
</g><g transform="rotate(180 50 50)">
  <rect fill="#550a9c" height="12" width="6" ry="6" rx="3" y="24" x="47">
    <animate repeatCount="indefinite" begin="-0.19936204146730463s" dur="0.47846889952153115s" keyTimes="0;1" values="1;0" attributeName="opacity"></animate>
  </rect>
</g><g transform="rotate(210 50 50)">
  <rect fill="#550a9c" height="12" width="6" ry="6" rx="3" y="24" x="47">
    <animate repeatCount="indefinite" begin="-0.1594896331738437s" dur="0.47846889952153115s" keyTimes="0;1" values="1;0" attributeName="opacity"></animate>
  </rect>
</g><g transform="rotate(240 50 50)">
  <rect fill="#550a9c" height="12" width="6" ry="6" rx="3" y="24" x="47">
    <animate repeatCount="indefinite" begin="-0.11961722488038279s" dur="0.47846889952153115s" keyTimes="0;1" values="1;0" attributeName="opacity"></animate>
  </rect>
</g><g transform="rotate(270 50 50)">
  <rect fill="#550a9c" height="12" width="6" ry="6" rx="3" y="24" x="47">
    <animate repeatCount="indefinite" begin="-0.07974481658692185s" dur="0.47846889952153115s" keyTimes="0;1" values="1;0" attributeName="opacity"></animate>
  </rect>
</g><g transform="rotate(300 50 50)">
  <rect fill="#550a9c" height="12" width="6" ry="6" rx="3" y="24" x="47">
    <animate repeatCount="indefinite" begin="-0.03987240829346093s" dur="0.47846889952153115s" keyTimes="0;1" values="1;0" attributeName="opacity"></animate>
  </rect>
</g><g transform="rotate(330 50 50)">
  <rect fill="#550a9c" height="12" width="6" ry="6" rx="3" y="24" x="47">
    <animate repeatCount="indefinite" begin="0s" dur="0.47846889952153115s" keyTimes="0;1" values="1;0" attributeName="opacity"></animate>
  </rect>
</g><g></g></g><!-- [ldio] generated by https://loading.io --></svg>